<svg width="640" height="360" viewBox="0 0 640 360" fill="none" xmlns="http://www.w3.org/2000/svg">
  <rect width="640" height="360" rx="28" fill="#F4F7FB"/>
  <rect x="30" y="30" width="580" height="300" rx="24" fill="url(#bg)"/>
  <rect x="60" y="76" width="144" height="208" rx="20" fill="#FFFFFF" fill-opacity="0.86"/>
  <rect x="88" y="106" width="88" height="60" rx="14" fill="#E74C3C"/>
  <path d="M122 122L122 150L146 136L122 122Z" fill="white"/>
  <rect x="82" y="184" width="100" height="10" rx="5" fill="#D7DFEA"/>
  <rect x="82" y="204" width="78" height="10" rx="5" fill="#D7DFEA"/>
  <rect x="254" y="74" width="116" height="56" rx="18" fill="#FFFFFF"/>
  <rect x="420" y="74" width="116" height="56" rx="18" fill="#FFFFFF"/>
  <rect x="336" y="208" width="116" height="56" rx="18" fill="#FFFFFF"/>
  <path d="M370 102H420" stroke="#FF8C42" stroke-width="8" stroke-linecap="round"/>
  <path d="M478 130L430 196" stroke="#FF8C42" stroke-width="8" stroke-linecap="round"/>
  <path d="M336 236L204 236" stroke="#FF8C42" stroke-width="8" stroke-linecap="round"/>
  <circle cx="312" cy="102" r="15" fill="#2E86DE"/>
  <circle cx="478" cy="102" r="15" fill="#27AE60"/>
  <circle cx="394" cy="236" r="15" fill="#8E44AD"/>
  <rect x="252" y="154" width="284" height="24" rx="12" fill="#FFFFFF" fill-opacity="0.95"/>
  <text x="270" y="170" fill="#24415F" font-family="Arial, Helvetica, sans-serif" font-size="18" font-weight="700">VideoChat-M1</text>
  <text x="253" y="286" fill="#FFFFFF" font-family="Arial, Helvetica, sans-serif" font-size="22" font-weight="700">Collaborative policy planning for video understanding</text>
  <defs>
    <linearGradient id="bg" x1="30" y1="30" x2="610" y2="330" gradientUnits="userSpaceOnUse">
      <stop stop-color="#143D59"/>
      <stop offset="1" stop-color="#1F6F8B"/>
    </linearGradient>
  </defs>
</svg>
